<svg width="40" height="40" viewBox="0 0 40 40" fill="none" xmlns="http://www.w3.org/2000/svg">
<rect width="40" height="40" fill="#FCF6EC"/>
<path d="M22.736 20.396C24.7591 20.9875 26.5361 22.2187 27.8006 23.905C29.0651 25.5914 29.7491 27.6422 29.75 29.75H10.25C10.2504 27.6421 10.9342 25.5911 12.1988 23.9046C13.4634 22.2181 15.2406 20.9871 17.264 20.396L20 24.5L22.736 20.396ZM24.875 15.125C24.875 16.4179 24.3614 17.6579 23.4471 18.5721C22.5329 19.4864 21.2929 20 20 20C18.7071 20 17.4671 19.4864 16.5529 18.5721C15.6386 17.6579 15.125 16.4179 15.125 15.125C15.125 13.8321 15.6386 12.5921 16.5529 11.6779C17.4671 10.7636 18.7071 10.25 20 10.25C21.2929 10.25 22.5329 10.7636 23.4471 11.6779C24.3614 12.5921 24.875 13.8321 24.875 15.125Z" fill="#181512"/>
</svg>
