<svg width="50" height="49" viewBox="0 0 50 49" fill="none" xmlns="http://www.w3.org/2000/svg">
<g filter="url(#filter0_d_968_26646)">
<path d="M1 0H49V48H1V0Z" fill="#A2998A"/>
</g>
<path fill-rule="evenodd" clip-rule="evenodd" d="M19.3418 33.9693V18.3413H14.5331V33.9693H19.3418ZM19.3418 12.8019C19.3131 11.4033 18.3852 10.3385 16.8778 10.3385C15.37 10.3385 14.3848 11.4033 14.3848 12.8019C14.3848 14.17 15.3413 15.2657 16.8201 15.2657H16.8488C18.3852 15.2657 19.3418 14.17 19.3418 12.8019ZM27.1869 33.9693V25.0652C27.1869 24.5887 27.2212 24.1121 27.3607 23.7724C27.7421 22.8199 28.6101 21.8338 30.0676 21.8338C31.977 21.8338 33.1744 22.9222 33.1744 25.0652V33.9693H38.0155V24.8269C38.0155 19.9295 35.4129 17.6507 31.9413 17.6507C29.0948 17.6507 27.8454 19.2492 27.1516 20.3372L27.1864 18.247H22.3536C22.4232 19.7431 22.3536 33.9693 22.3536 33.9693H27.1869Z" fill="#0E0F14"/>
<defs>
<filter id="filter0_d_968_26646" x="0.616" y="0" width="48.768" height="48.768" filterUnits="userSpaceOnUse" color-interpolation-filters="sRGB">
<feFlood flood-opacity="0" result="BackgroundImageFix"/>
<feColorMatrix in="SourceAlpha" type="matrix" values="0 0 0 0 0 0 0 0 0 0 0 0 0 0 0 0 0 0 127 0" result="hardAlpha"/>
<feOffset dy="0.384"/>
<feGaussianBlur stdDeviation="0.192"/>
<feComposite in2="hardAlpha" operator="out"/>
<feColorMatrix type="matrix" values="0 0 0 0 0 0 0 0 0 0 0 0 0 0 0 0 0 0 0.25 0"/>
<feBlend mode="normal" in2="BackgroundImageFix" result="effect1_dropShadow_968_26646"/>
<feBlend mode="normal" in="SourceGraphic" in2="effect1_dropShadow_968_26646" result="shape"/>
</filter>
</defs>
</svg>
