<svg width="50" height="49" viewBox="0 0 50 49" fill="none" xmlns="http://www.w3.org/2000/svg">
<g filter="url(#filter0_d_968_26651)">
<path d="M1 0H49V48H1V0Z" fill="#A2998A"/>
</g>
<path d="M38.3948 16.9598H33.6015C33.4058 16.9598 33.2138 17.0112 33.0459 17.1086C32.878 17.206 32.7405 17.3456 32.648 17.5127C32.648 17.5127 30.7362 20.9255 30.1222 22.075C28.4701 25.1673 27.4003 24.1965 27.4003 22.7614V17.8129C27.4003 17.3994 27.2309 17.0029 26.9292 16.7105C26.6276 16.4181 26.2185 16.2538 25.7919 16.2538H22.1879C21.6971 16.2184 21.2052 16.3053 20.7587 16.5061C20.3123 16.7069 19.9262 17.015 19.6372 17.4011C19.6372 17.4011 21.4672 17.1143 21.4672 19.5044C21.4672 20.0971 21.4987 21.8021 21.5274 23.2322C21.5328 23.4429 21.4714 23.6502 21.3514 23.826C21.2315 24.0019 21.0587 24.1378 20.8565 24.2154C20.6543 24.2931 20.4324 24.3087 20.2208 24.2602C20.0092 24.2117 19.818 24.1015 19.673 23.9443C18.1979 21.9556 16.9759 19.8014 16.0338 17.5286C15.9529 17.3586 15.8234 17.2146 15.6606 17.1138C15.4978 17.013 15.3086 16.9595 15.1155 16.9598C14.076 16.9598 11.9958 16.9598 10.7604 16.9598C10.6406 16.959 10.5224 16.9864 10.416 17.0397C10.3095 17.093 10.218 17.1705 10.1493 17.2656C10.0806 17.3607 10.0367 17.4705 10.0214 17.5857C10.0061 17.7009 10.02 17.8179 10.0617 17.9268C11.3841 21.4429 17.0805 32.4922 23.5825 32.4922H26.3192C26.6059 32.4922 26.8809 32.3818 27.0837 32.1853C27.2864 31.9888 27.4003 31.7222 27.4003 31.4442V29.8424C27.4003 29.6415 27.461 29.4449 27.5748 29.277C27.6886 29.1091 27.8507 28.9771 28.0409 28.8973C28.2312 28.8175 28.4414 28.7934 28.6456 28.828C28.8498 28.8626 29.0391 28.9544 29.1902 29.0919L32.4658 32.0752C32.76 32.3431 33.1484 32.4922 33.5521 32.4922H37.8535C39.9281 32.4922 39.9281 31.0968 38.797 30.017C38.001 29.2571 35.1285 26.3222 35.1285 26.3222C34.8825 26.0752 34.7358 25.7511 34.7149 25.4083C34.6939 25.0656 34.8002 24.7269 35.0144 24.4535C35.9428 23.2691 37.4615 21.3304 38.1055 20.4999C38.9859 19.3647 40.5792 16.9598 38.3948 16.9598Z" fill="#0E0F14"/>
<defs>
<filter id="filter0_d_968_26651" x="0.616" y="0" width="48.768" height="48.768" filterUnits="userSpaceOnUse" color-interpolation-filters="sRGB">
<feFlood flood-opacity="0" result="BackgroundImageFix"/>
<feColorMatrix in="SourceAlpha" type="matrix" values="0 0 0 0 0 0 0 0 0 0 0 0 0 0 0 0 0 0 127 0" result="hardAlpha"/>
<feOffset dy="0.384"/>
<feGaussianBlur stdDeviation="0.192"/>
<feComposite in2="hardAlpha" operator="out"/>
<feColorMatrix type="matrix" values="0 0 0 0 0 0 0 0 0 0 0 0 0 0 0 0 0 0 0.25 0"/>
<feBlend mode="normal" in2="BackgroundImageFix" result="effect1_dropShadow_968_26651"/>
<feBlend mode="normal" in="SourceGraphic" in2="effect1_dropShadow_968_26651" result="shape"/>
</filter>
</defs>
</svg>
