<svg width="50" height="49" viewBox="0 0 50 49" fill="none" xmlns="http://www.w3.org/2000/svg">
<g filter="url(#filter0_d_968_26630)">
<path d="M1 0H49V48H1V0Z" fill="#A2998A"/>
</g>
<path fill-rule="evenodd" clip-rule="evenodd" d="M19.5528 10.5929L18.1549 6H16.0827C16.4976 7.08477 16.9298 8.17373 17.3452 9.25879C17.9768 10.89 18.3705 12.1198 18.549 12.9585V17.6954H20.5187V12.9585L22.8877 6H20.8964L19.5528 10.5929ZM32.9418 8.98012V15.6412C32.5484 16.1357 32.1757 16.3804 31.8207 16.3804C31.5823 16.3804 31.4429 16.2552 31.4037 16.0107C31.3823 15.9591 31.3823 15.7668 31.3823 15.3968V8.98012H29.612V15.8718C29.612 16.487 29.6715 16.9034 29.7696 17.1676C29.9467 17.609 30.3413 17.8154 30.9129 17.8154C31.5606 17.8154 32.235 17.4654 32.9418 16.7448V17.6954H34.718V8.98021L32.9418 8.98012ZM25.5272 8.87532C24.6425 8.87532 23.951 9.17247 23.4602 9.7685C23.0824 10.2088 22.9038 10.8899 22.9038 11.8215V14.8738C22.9038 15.8 23.0824 16.4871 23.4602 16.9232C23.9511 17.5175 24.6426 17.8154 25.5272 17.8154C26.4171 17.8154 27.1081 17.5175 27.5994 16.9232C27.9717 16.4871 28.1505 15.8 28.1505 14.8738V11.8215C28.1505 10.89 27.9717 10.2088 27.5994 9.7685C27.1081 9.17247 26.4171 8.87532 25.5272 8.87532ZM26.3743 15.1708C26.3743 15.9773 26.0997 16.3804 25.5272 16.3804C24.9546 16.3804 24.6797 15.9773 24.6797 15.1708V11.5046C24.6797 10.6984 24.9546 10.2962 25.5272 10.2962C26.0998 10.2962 26.3743 10.6984 26.3743 11.5046V15.1708Z" fill="#0E0F14"/>
<path fill-rule="evenodd" clip-rule="evenodd" d="M35.0467 29.5833C34.4645 29.5833 34.1742 30.0306 34.1742 30.927V31.8247H35.9144V30.927C35.9145 30.0305 35.6228 29.5833 35.0467 29.5833ZM28.5883 29.5833C28.3022 29.5833 28.0119 29.7207 27.7206 30.0104V35.9176C28.0119 36.2112 28.3021 36.3498 28.5883 36.3498C29.0903 36.3498 29.3459 35.9176 29.3459 35.042V30.9061C29.3459 30.0305 29.0903 29.5833 28.5883 29.5833ZM39.3016 24.4494C38.9494 22.9039 37.6963 21.764 36.1886 21.594C32.8373 21.2162 29.4478 21.1912 26.0688 21.1912C25.8473 21.1912 25.6255 21.1914 25.404 21.1914C25.1825 21.1914 24.961 21.1912 24.7394 21.1912C21.3605 21.1912 17.9706 21.2161 14.6195 21.594C13.1117 21.764 11.8594 22.9039 11.5071 24.4494C11.0058 26.6506 11 29.0527 11 31.3188V31.4814C11.0002 33.6998 11.012 36.0393 11.5014 38.188C11.8537 39.7335 13.1059 40.8733 14.6137 41.0433C17.9687 41.4216 21.3618 41.4462 24.7447 41.4462C24.9625 41.4462 25.1806 41.4462 25.3982 41.4459C25.6161 41.4462 25.8337 41.4462 26.0516 41.4462C29.4343 41.4462 32.8279 41.4216 36.1827 41.0433C37.6905 40.8733 38.9435 39.7335 39.2958 38.188C39.7899 36.0179 39.7998 33.6527 39.8 31.4147V31.3188C39.8 29.0527 39.8029 26.6506 39.3016 24.4494ZM19.2149 26.6362H17.1307V37.8126H15.1944V26.6362H13.1473V24.8049H19.2149V26.6362ZM24.4738 37.8126H22.7329V36.7554C22.0411 37.5562 21.3836 37.9461 20.7437 37.9461C20.1831 37.9461 19.7965 37.7163 19.6224 37.2256C19.5276 36.932 19.4691 36.4683 19.4691 35.7842V28.1199H21.2089V35.256C21.2089 35.6676 21.2089 35.8811 21.2251 35.9391C21.2674 36.2112 21.3998 36.3498 21.6324 36.3498C21.9817 36.3498 22.3465 36.0784 22.7329 35.5283V28.1199H24.4738V37.8126ZM31.0855 34.9033C31.0855 35.8003 31.0261 36.4461 30.9109 36.8571C30.6774 37.5775 30.2122 37.9461 29.5194 37.9461C28.9007 37.9461 28.3022 37.5992 27.7208 36.8731V37.8125H25.9805V24.8049H27.7206V29.0534C28.2826 28.3555 28.8793 28.0027 29.5193 28.0027C30.2121 28.0027 30.6773 28.3706 30.9108 29.0965C31.0261 29.4865 31.0854 30.1271 31.0854 31.0443L31.0855 34.9033ZM37.6539 33.2862H34.1742V35.005C34.1742 35.902 34.4644 36.3499 35.0624 36.3499C35.4915 36.3499 35.7406 36.1148 35.84 35.6449C35.8559 35.5492 35.8782 35.16 35.8782 34.4556H37.6538V34.7121C37.6538 35.277 37.6331 35.6677 37.6168 35.8429C37.5587 36.2329 37.4221 36.585 37.21 36.8956C36.7289 37.5993 36.0148 37.9463 35.1059 37.9463C34.1954 37.9463 33.5025 37.6156 32.9992 36.9535C32.6293 36.4685 32.4396 35.7043 32.4396 34.6744V31.2801C32.4396 30.2443 32.6083 29.4866 32.9779 28.9964C33.4813 28.333 34.174 28.0029 35.0622 28.0029C35.9354 28.0029 36.6284 28.333 37.1159 28.9964C37.4804 29.4866 37.6538 30.2443 37.6538 31.2801L37.6539 33.2862Z" fill="#0E0F14"/>
<defs>
<filter id="filter0_d_968_26630" x="0.616" y="0" width="48.768" height="48.768" filterUnits="userSpaceOnUse" color-interpolation-filters="sRGB">
<feFlood flood-opacity="0" result="BackgroundImageFix"/>
<feColorMatrix in="SourceAlpha" type="matrix" values="0 0 0 0 0 0 0 0 0 0 0 0 0 0 0 0 0 0 127 0" result="hardAlpha"/>
<feOffset dy="0.384"/>
<feGaussianBlur stdDeviation="0.192"/>
<feComposite in2="hardAlpha" operator="out"/>
<feColorMatrix type="matrix" values="0 0 0 0 0 0 0 0 0 0 0 0 0 0 0 0 0 0 0.25 0"/>
<feBlend mode="normal" in2="BackgroundImageFix" result="effect1_dropShadow_968_26630"/>
<feBlend mode="normal" in="SourceGraphic" in2="effect1_dropShadow_968_26630" result="shape"/>
</filter>
</defs>
</svg>
